<svg width="217" height="34" viewBox="0 0 217 34" fill="none" xmlns="http://www.w3.org/2000/svg">
<path fill-rule="evenodd" clip-rule="evenodd" d="M25.3651 10H21.71V28.4073H25.3651V10ZM17.1963 10.7266C18.3633 10.7266 19.3101 11.6734 19.3101 12.8403C19.3101 14.0073 18.3633 14.9541 17.1963 14.9541C16.0294 14.9541 15.0826 14.0073 15.0826 12.8403C15.0826 11.6734 16.0294 10.7266 17.1963 10.7266ZM15.3688 16.5835H19.0238V28.4293H15.3688V16.5835ZM0 11.167H6.42935C9.44585 11.167 12.7266 11.8055 12.7266 15.5486C12.7266 17.4642 11.5376 18.7853 9.75411 19.3578V19.4018C12.022 19.688 13.5192 21.3834 13.5192 23.6073C13.5192 27.2183 10.1064 28.4073 7.04586 28.4073H0V11.167ZM3.80917 18.0587H6.56145C7.72842 18.0587 8.93943 17.5743 8.93943 16.1871C8.93943 14.7559 7.5743 14.3816 6.38531 14.3816H3.80917V18.0587ZM3.80917 25.1926H7.222C8.41099 25.1926 9.75411 24.6862 9.75411 23.1669C9.75411 21.5376 7.92659 21.2734 6.69356 21.2734H3.83118L3.80917 25.1926ZM28.0293 10H31.6844V28.4073H28.0293V10ZM38.0256 16.5835H34.6568V34H38.3119V27.1743H38.3559C39.1706 28.3193 40.5798 28.7376 42.099 28.7376C45.4678 28.7376 47.5155 25.6991 47.5155 22.4184C47.5155 18.8294 45.2036 16.2973 41.7027 16.2973C40.0513 16.2973 38.6201 17.2881 38.0697 18.1468H38.0256V16.5835ZM43.8825 22.4844C43.8825 24.2679 42.7816 25.4789 40.9541 25.4789C39.1266 25.4789 38.0256 24.2679 38.0256 22.4844C38.0256 20.701 39.1266 19.4899 40.9541 19.4899C42.7816 19.4899 43.8825 20.701 43.8825 22.4844ZM49.7173 10H53.3724V28.4073H49.7173V10ZM61.6733 19.4899L55.5302 24.7523V28.4074H66.0549V25.4789H59.4935L65.9228 20.0844V16.5835H55.6843V19.4899H61.6733Z" fill="#3784F4"/>
<path d="M75.2832 28.4499H73.4999L78.6577 14.05H80.4136L85.5715 28.4499H83.7882L79.5905 16.3281H79.4808L75.2832 28.4499ZM75.9416 22.825H83.1297V24.3718H75.9416V22.825Z" fill="#202D41"/>
<path d="M89.1587 21.9531V28.4499H87.54V17.65H89.1038V19.3375H89.241C89.4879 18.789 89.8628 18.3484 90.3658 18.0156C90.8688 17.6781 91.5181 17.5093 92.3137 17.5093C93.027 17.5093 93.6512 17.6593 94.1862 17.9593C94.7212 18.2547 95.1373 18.7047 95.4345 19.3093C95.7317 19.9093 95.8803 20.6687 95.8803 21.5875V28.4499H94.2616V21.7C94.2616 20.8515 94.0467 20.1906 93.6169 19.7172C93.1871 19.239 92.5972 19 91.8473 19C91.3306 19 90.8688 19.1148 90.4618 19.3445C90.0595 19.5742 89.7417 19.9093 89.5085 20.35C89.2753 20.7906 89.1587 21.325 89.1587 21.9531Z" fill="#202D41"/>
<path d="M101.938 28.7031C101.271 28.7031 100.665 28.5742 100.121 28.3164C99.5767 28.0539 99.1446 27.6765 98.8245 27.1843C98.5044 26.6875 98.3444 26.0875 98.3444 25.3843C98.3444 24.7656 98.4633 24.264 98.701 23.8796C98.9388 23.4906 99.2566 23.1859 99.6544 22.9656C100.052 22.7453 100.491 22.5812 100.971 22.4734C101.456 22.3609 101.943 22.2718 102.432 22.2062C103.072 22.1218 103.591 22.0586 103.989 22.0164C104.392 21.9695 104.684 21.8921 104.867 21.7843C105.055 21.6765 105.148 21.489 105.148 21.2218V21.1656C105.148 20.4718 104.963 19.9328 104.593 19.5484C104.227 19.164 103.671 18.9718 102.926 18.9718C102.153 18.9718 101.547 19.1453 101.109 19.4922C100.67 19.839 100.361 20.2093 100.183 20.6031L98.6462 20.0406C98.9205 19.3843 99.2863 18.8734 99.7436 18.5078C100.205 18.1375 100.708 17.8797 101.253 17.7343C101.801 17.5843 102.341 17.5093 102.871 17.5093C103.21 17.5093 103.598 17.5515 104.037 17.6359C104.481 17.7156 104.908 17.882 105.32 18.1351C105.736 18.3882 106.081 18.7703 106.356 19.2812C106.63 19.7922 106.767 20.4765 106.767 21.3343V28.4499H105.148V26.9874H105.066C104.956 27.2218 104.773 27.4726 104.517 27.7398C104.261 28.007 103.921 28.2343 103.495 28.4218C103.07 28.6093 102.551 28.7031 101.938 28.7031ZM102.185 27.2124C102.826 27.2124 103.365 27.0835 103.804 26.8257C104.248 26.5679 104.581 26.2351 104.805 25.8273C105.034 25.4195 105.148 24.9906 105.148 24.5406V23.0218C105.08 23.1062 104.929 23.1835 104.696 23.2539C104.467 23.3195 104.202 23.3781 103.9 23.4296C103.603 23.4765 103.312 23.5187 103.029 23.5562C102.75 23.589 102.524 23.6171 102.35 23.6406C101.929 23.6968 101.536 23.7882 101.17 23.9148C100.809 24.0367 100.516 24.2218 100.292 24.4703C100.073 24.714 99.9631 25.0468 99.9631 25.4687C99.9631 26.0453 100.171 26.4812 100.587 26.7765C101.008 27.0671 101.541 27.2124 102.185 27.2124Z" fill="#202D41"/>
<path d="M111.34 14.05V28.4499H109.722V14.05H111.34Z" fill="#202D41"/>
<path d="M115.347 32.4999C115.073 32.4999 114.829 32.4765 114.614 32.4296C114.399 32.3874 114.25 32.3453 114.168 32.3031L114.579 30.8406C114.973 30.9437 115.32 30.9812 115.622 30.9531C115.924 30.9249 116.191 30.7867 116.424 30.5382C116.662 30.2945 116.879 29.8984 117.076 29.3499L117.378 28.5062L113.482 17.65H115.238L118.146 26.2562H118.256L121.164 17.65H122.92L118.448 30.0249C118.247 30.5828 117.997 31.0445 117.7 31.4101C117.403 31.7804 117.058 32.0546 116.664 32.2328C116.276 32.4109 115.837 32.4999 115.347 32.4999Z" fill="#202D41"/>
<path d="M129.638 17.65V19.0562H124.178V17.65H129.638ZM125.77 15.0625H127.388V25.3562C127.388 25.825 127.455 26.1765 127.587 26.4109C127.724 26.6406 127.898 26.7953 128.108 26.875C128.323 26.95 128.55 26.9874 128.787 26.9874C128.966 26.9874 129.112 26.9781 129.226 26.9593C129.341 26.9359 129.432 26.9171 129.501 26.9031L129.83 28.3937C129.72 28.4359 129.567 28.4781 129.37 28.5203C129.174 28.5671 128.925 28.5906 128.623 28.5906C128.166 28.5906 127.717 28.4898 127.278 28.2882C126.844 28.0867 126.483 27.7796 126.195 27.3671C125.911 26.9546 125.77 26.4343 125.77 25.8062V15.0625Z" fill="#202D41"/>
<path d="M132.073 28.4499V17.65H133.692V28.4499H132.073ZM132.896 15.85C132.58 15.85 132.308 15.7398 132.08 15.5195C131.856 15.2992 131.744 15.0343 131.744 14.725C131.744 14.4156 131.856 14.1508 132.08 13.9304C132.308 13.7101 132.58 13.6 132.896 13.6C133.211 13.6 133.481 13.7101 133.705 13.9304C133.934 14.1508 134.048 14.4156 134.048 14.725C134.048 15.0343 133.934 15.2992 133.705 15.5195C133.481 15.7398 133.211 15.85 132.896 15.85Z" fill="#202D41"/>
<path d="M140.936 28.6749C139.949 28.6749 139.098 28.4359 138.385 27.9578C137.671 27.4796 137.123 26.821 136.739 25.982C136.354 25.1429 136.162 24.1843 136.162 23.1062C136.162 22.0093 136.359 21.0414 136.752 20.2023C137.15 19.3586 137.703 18.7 138.412 18.2265C139.125 17.7484 139.958 17.5093 140.909 17.5093C141.649 17.5093 142.317 17.65 142.912 17.9312C143.506 18.2125 143.993 18.6062 144.372 19.1125C144.752 19.6187 144.987 20.2093 145.079 20.8843H143.46C143.337 20.3921 143.062 19.9562 142.637 19.5765C142.216 19.1922 141.649 19 140.936 19C140.305 19 139.752 19.1687 139.276 19.5062C138.805 19.839 138.437 20.3101 138.172 20.9195C137.911 21.5242 137.781 22.2343 137.781 23.05C137.781 23.8843 137.909 24.6109 138.165 25.2296C138.426 25.8484 138.792 26.3289 139.263 26.671C139.738 27.0132 140.296 27.1843 140.936 27.1843C141.357 27.1843 141.739 27.1093 142.082 26.9593C142.425 26.8093 142.715 26.5937 142.953 26.3125C143.19 26.0312 143.36 25.6937 143.46 25.3H145.079C144.987 25.9375 144.761 26.5117 144.4 27.0226C144.043 27.5289 143.57 27.932 142.98 28.232C142.395 28.5273 141.714 28.6749 140.936 28.6749Z" fill="#202D41"/>
<path d="M154.908 20.0687L153.454 20.4906C153.362 20.2422 153.227 20.0007 153.049 19.7664C152.875 19.5273 152.637 19.3304 152.336 19.1757C152.034 19.0211 151.647 18.9437 151.176 18.9437C150.532 18.9437 149.994 19.0961 149.565 19.4007C149.139 19.7007 148.927 20.0828 148.927 20.5468C148.927 20.9593 149.073 21.2851 149.366 21.5242C149.658 21.7632 150.116 21.9625 150.737 22.1218L152.301 22.5156C153.243 22.75 153.945 23.1086 154.407 23.5914C154.869 24.0695 155.1 24.6859 155.1 25.4406C155.1 26.0593 154.926 26.6124 154.578 27.0999C154.236 27.5874 153.755 27.9718 153.138 28.2531C152.521 28.5343 151.803 28.6749 150.984 28.6749C149.91 28.6749 149.02 28.4359 148.316 27.9578C147.612 27.4796 147.166 26.7812 146.979 25.8625L148.515 25.4687C148.662 26.05 148.938 26.4859 149.345 26.7765C149.757 27.0671 150.294 27.2124 150.957 27.2124C151.711 27.2124 152.31 27.0484 152.754 26.7203C153.202 26.3875 153.426 25.989 153.426 25.525C153.426 25.15 153.298 24.8359 153.042 24.5828C152.786 24.325 152.393 24.1328 151.862 24.0062L150.106 23.5843C149.142 23.35 148.433 22.9867 147.98 22.4945C147.532 21.9976 147.308 21.3765 147.308 20.6312C147.308 20.0218 147.475 19.4828 147.809 19.014C148.147 18.5453 148.607 18.1773 149.187 17.9101C149.773 17.6429 150.436 17.5093 151.176 17.5093C152.219 17.5093 153.037 17.7437 153.632 18.2125C154.231 18.6812 154.656 19.3 154.908 20.0687Z" fill="#202D41"/>
</svg>
