<svg width="24" height="24" viewBox="0 0 24 24" fill="none" xmlns="http://www.w3.org/2000/svg">
<path d="M17.1213 7.22787L21.2279 3.12133M21.2279 3.12133L16.6317 3.47489M21.2279 3.12133L20.8743 7.71753" stroke="black" stroke-width="2" stroke-linecap="round" stroke-linejoin="round"/>
<path d="M10 6V22" stroke="black" stroke-width="2" stroke-linecap="round" stroke-linejoin="round"/>
<path d="M15 9H7.5C6.57174 9 5.6815 9.28973 5.02513 9.80546C4.36875 10.3212 4 11.0207 4 11.75C4 12.4793 4.36875 13.1788 5.02513 13.6945C5.6815 14.2103 6.57174 14.5 7.5 14.5H12.5C13.4283 14.5 14.3185 14.7897 14.9749 15.3055C15.6313 15.8212 16 16.5207 16 17.25C16 17.9793 15.6313 18.6788 14.9749 19.1945C14.3185 19.7103 13.4283 20 12.5 20H4" stroke="black" stroke-width="2" stroke-linecap="round" stroke-linejoin="round"/>
</svg>
