<svg width="24" height="24" viewBox="0 0 24 24" fill="none" xmlns="http://www.w3.org/2000/svg">
<g clip-path="url(#clip0_167_3521)">
<path d="M12.2512 0.819153V22.8192" stroke="black" stroke-width="2" stroke-linecap="round" stroke-linejoin="round"/>
<path d="M17.2512 4.81915H9.75122C8.82296 4.81915 7.93272 5.1879 7.27635 5.84428C6.61997 6.50066 6.25122 7.3909 6.25122 8.31915C6.25122 9.24741 6.61997 10.1376 7.27635 10.794C7.93272 11.4504 8.82296 11.8192 9.75122 11.8192H14.7512C15.6795 11.8192 16.5697 12.1879 17.2261 12.8443C17.8825 13.5007 18.2512 14.3909 18.2512 15.3192C18.2512 16.2474 17.8825 17.1377 17.2261 17.794C16.5697 18.4504 15.6795 18.8192 14.7512 18.8192H6.25122" stroke="black" stroke-width="2" stroke-linecap="round" stroke-linejoin="round"/>
</g>
<defs>
<clipPath id="clip0_167_3521">
<rect width="24" height="24" fill="white"/>
</clipPath>
</defs>
</svg>
