<svg width="18" height="18" viewBox="0 0 18 18" fill="none" xmlns="http://www.w3.org/2000/svg">
<path d="M15.688 1.90656C15.5972 1.86862 15.4998 1.84894 15.4014 1.84863H9.49416C9.29525 1.84863 9.10448 1.92765 8.96383 2.0683C8.82318 2.20896 8.74416 2.39972 8.74416 2.59863C8.74416 2.79755 8.82318 2.98831 8.96383 3.12896C9.10448 3.26962 9.29525 3.34863 9.49416 3.34863H13.5908L7.16311 9.77637C7.09306 9.84592 7.03742 9.92861 6.9994 10.0197C6.96138 10.1108 6.94171 10.2085 6.94153 10.3072C6.94135 10.4059 6.96066 10.5037 6.99835 10.5949C7.03604 10.6862 7.09138 10.769 7.16118 10.8388C7.23097 10.9086 7.31387 10.964 7.4051 11.0017C7.49633 11.0394 7.5941 11.0587 7.69281 11.0585C7.79152 11.0583 7.88923 11.0386 7.98032 11.0006C8.07142 10.9626 8.15411 10.907 8.22365 10.8369L14.6514 4.40918V8.50586C14.6514 8.70478 14.7304 8.89554 14.8711 9.03619C15.0117 9.17685 15.2025 9.25586 15.4014 9.25586C15.6003 9.25586 15.7911 9.17685 15.9317 9.03619C16.0724 8.89554 16.1514 8.70478 16.1514 8.50586V2.59863C16.1508 2.45048 16.1065 2.3058 16.0241 2.1827C15.9417 2.0596 15.8248 1.96354 15.688 1.90656H15.688Z" fill="#5B5B5B"/>
<path d="M13.4014 11.0508C13.2025 11.0508 13.0117 11.1299 12.8711 11.2705C12.7305 11.4112 12.6514 11.6019 12.6514 11.8008V13.6016C12.6511 13.8799 12.5405 14.1468 12.3436 14.3436C12.1468 14.5405 11.8799 14.6511 11.6016 14.6514H4.39844C4.12009 14.6511 3.8532 14.5405 3.65638 14.3436C3.45955 14.1468 3.34887 13.8799 3.34863 13.6016V6.39844C3.34887 6.12009 3.45955 5.8532 3.65638 5.65638C3.8532 5.45955 4.12009 5.34887 4.39844 5.34863H6.19922C6.39814 5.34863 6.5889 5.26962 6.72955 5.12896C6.87021 4.98831 6.94922 4.79755 6.94922 4.59863C6.94922 4.39972 6.87021 4.20895 6.72955 4.0683C6.5889 3.92765 6.39814 3.84863 6.19922 3.84863H4.39844C3.7224 3.8493 3.07423 4.11816 2.59619 4.59619C2.11816 5.07423 1.8493 5.7224 1.84863 6.39844V13.6016C1.8493 14.2776 2.11816 14.9258 2.59619 15.4038C3.07423 15.8819 3.7224 16.1507 4.39844 16.1514H11.6016C12.2776 16.1507 12.9258 15.8819 13.4038 15.4038C13.8819 14.9258 14.1507 14.2776 14.1514 13.6016V11.8008C14.1513 11.6019 14.0723 11.4112 13.9316 11.2705C13.791 11.1299 13.6003 11.0508 13.4014 11.0508Z" fill="#5B5B5B"/>
</svg>
